# xmcd
#
# Track frame offsets:
#	150
#	20160
#	41789
#	62617
#	82496
#	98851
#	116407
#	140768
#	154447
#	164379
#	181421
#	201453
#	220730
#	236758
#	265724
#
# Disc length: 3572 seconds
#
# Revision: 0
# Processed by: cddbd v1.5.2PL0 Copyright (c) Steve Scherf et al.
# Submitted via: dBpowerAMP V4.0
#
DISCID=e60df20f
DTITLE=Dust Eater Dogs and Kotikirkkomika - Voiman Ja Rauhan Messu
DYEAR=1900
DGENRE=
TTITLE0=Yksinäinen
TTITLE1=Nostan Väsyneen Katseen
TTITLE2=Minne Voisin Mennä
TTITLE3=Siirrä Syntini Pois
TTITLE4=Tarvitsen Sua
TTITLE5=Voiman Ja Rauhan Sade
TTITLE6=Kiitos Tästä Hetkestä
TTITLE7=Luottamus
TTITLE8=Verityö
TTITLE9=Ei Mitään Suurempaa
TTITLE10=Jumalan Karitsa
TTITLE11=Elän Rauhassa
TTITLE12=Korkeimman Suojassa
TTITLE13=Bonus Track 14
TTITLE14=DATA
EXTD=
EXTT0=
EXTT1=
EXTT2=
EXTT3=
EXTT4=
EXTT5=
EXTT6=
EXTT7=
EXTT8=
EXTT9=
EXTT10=
EXTT11=
EXTT12=
EXTT13=
EXTT14=
PLAYORDER=
